<svg width="80" height="76" viewBox="0 0 80 76" fill="none" xmlns="http://www.w3.org/2000/svg">
<path fill-rule="evenodd" clip-rule="evenodd" d="M78.3013 20.2049L71.2114 30.1354L64.1215 20.2049H67.9871C67.6924 12.8264 61.6079 6.92361 54.1713 6.92361C47.8961 6.92361 42.5743 11.1424 40.8929 16.8889C38.8474 16.2292 36.7325 15.8125 34.583 15.6215C34.8257 14.7014 35.1377 13.7812 35.5191 12.8958C36.5418 10.4826 37.998 8.3125 39.8528 6.45486C41.7076 4.59722 43.8744 3.12153 46.284 2.11458C48.7802 1.03819 51.4324 0.5 54.1713 0.5C56.9102 0.5 59.5624 1.03819 62.0586 2.09722C64.4682 3.12153 66.635 4.57986 68.4898 6.4375C70.3447 8.29514 71.8008 10.4653 72.8235 12.8785C73.8116 15.2049 74.349 17.6701 74.401 20.2049H78.3013Z" fill="black"/>
<path fill-rule="evenodd" clip-rule="evenodd" d="M68.3859 75.5001V71.2293H43.9438C44.1172 71.1425 44.2905 71.073 44.4639 70.9862C47.1161 69.7189 49.5603 68.0696 51.7445 66.0557C52.0392 65.7779 52.3165 65.5175 52.5766 65.2571C52.8713 64.9619 53.1833 64.6494 53.478 64.3196C53.8247 63.9376 54.1714 63.5383 54.4834 63.139H68.3859V58.8682L80.0002 67.1841L68.3859 75.5001Z" fill="black"/>
<path fill-rule="evenodd" clip-rule="evenodd" d="M59.3716 44.6495C59.3716 48.3474 58.6435 51.9412 57.2221 55.3266C56.0087 58.2085 54.3099 60.8474 52.195 63.1565C51.9177 63.4516 51.6403 63.7467 51.3629 64.0419C51.1029 64.3023 50.8429 64.5454 50.5829 64.8058C48.5374 66.6981 46.2492 68.2433 43.753 69.4412C43.4063 69.6148 43.0422 69.7711 42.6782 69.9273C42.6609 69.9273 42.6609 69.9447 42.6435 69.9447C40.5634 70.8301 38.3272 71.2641 36.0563 71.2641H0V63.1912H33.4735C43.597 63.1912 51.9003 55.0836 52.039 44.9447C52.039 44.8579 52.039 44.7711 52.039 44.6842C52.039 33.6079 43.0596 24.6148 32 24.6148C20.9404 24.5801 11.961 33.5558 11.961 44.6495H16.6067L8.30336 56.2815L0 44.6495H4.64572C4.64572 40.9516 5.37378 37.3579 6.79523 33.9724C8.18201 30.7086 10.1408 27.7745 12.6544 25.2572C15.1679 22.7398 18.0975 20.7606 21.3564 19.3891C24.7367 17.9655 28.325 17.2363 32.0173 17.2363C32.7627 17.2363 33.4908 17.2711 34.2188 17.3231C36.3684 17.4967 38.4659 17.9134 40.5114 18.5905C41.2394 18.8335 41.9502 19.094 42.6609 19.4065C45.9198 20.7954 48.8494 22.7572 51.3629 25.2745C53.8765 27.7919 55.8526 30.7259 57.2221 33.9898C58.6435 37.3579 59.3716 40.9516 59.3716 44.6495Z" fill="black"/>
</svg>
