<svg xmlns="http://www.w3.org/2000/svg" xmlns:xlink="http://www.w3.org/1999/xlink" version="1.0" x="0" y="0" width="2400" height="1647.9089525814684" viewBox="132.51602729797364 99.25977119445801 74.9679377746582 51.4751399230957" preserveAspectRatio="xMidYMid meet" color-interpolation-filters="sRGB"><g><defs><linearGradient id="92" x1="0%" y1="0%" x2="100%" y2="0%"><stop offset="0%" stop-color="#fa71cd"></stop> <stop offset="100%" stop-color="#9b59b6"></stop></linearGradient><linearGradient id="93" x1="0%" y1="0%" x2="100%" y2="0%"><stop offset="0%" stop-color="#f9d423"></stop> <stop offset="100%" stop-color="#f83600"></stop></linearGradient><linearGradient id="94" x1="0%" y1="0%" x2="100%" y2="0%"><stop offset="0%" stop-color="#0064d2"></stop> <stop offset="100%" stop-color="#1cb0f6"></stop></linearGradient><linearGradient id="95" x1="0%" y1="0%" x2="100%" y2="0%"><stop offset="0%" stop-color="#f00978"></stop> <stop offset="100%" stop-color="#3f51b1"></stop></linearGradient><linearGradient id="96" x1="0%" y1="0%" x2="100%" y2="0%"><stop offset="0%" stop-color="#7873f5"></stop> <stop offset="100%" stop-color="#ec77ab"></stop></linearGradient><linearGradient id="97" x1="0%" y1="0%" x2="100%" y2="0%"><stop offset="0%" stop-color="#f9d423"></stop> <stop offset="100%" stop-color="#e14fad"></stop></linearGradient><linearGradient id="98" x1="0%" y1="0%" x2="100%" y2="0%"><stop offset="0%" stop-color="#009efd"></stop> <stop offset="100%" stop-color="#2af598"></stop></linearGradient><linearGradient id="99" x1="0%" y1="0%" x2="100%" y2="0%"><stop offset="0%" stop-color="#ffcc00"></stop> <stop offset="100%" stop-color="#00b140"></stop></linearGradient><linearGradient id="100" x1="0%" y1="0%" x2="100%" y2="0%"><stop offset="0%" stop-color="#d51007"></stop> <stop offset="100%" stop-color="#ff8177"></stop></linearGradient><linearGradient id="102" x1="0%" y1="0%" x2="100%" y2="0%"><stop offset="0%" stop-color="#a2b6df"></stop> <stop offset="100%" stop-color="#0c3483"></stop></linearGradient><linearGradient id="103" x1="0%" y1="0%" x2="100%" y2="0%"><stop offset="0%" stop-color="#7ac5d8"></stop> <stop offset="100%" stop-color="#eea2a2"></stop></linearGradient><linearGradient id="104" x1="0%" y1="0%" x2="100%" y2="0%"><stop offset="0%" stop-color="#00ecbc"></stop> <stop offset="100%" stop-color="#007adf"></stop></linearGradient><linearGradient id="105" x1="0%" y1="0%" x2="100%" y2="0%"><stop offset="0%" stop-color="#b88746"></stop> <stop offset="100%" stop-color="#fdf5a6"></stop></linearGradient></defs><g fill="#444" class="iconlettersvg-g iconlettersvg" transform="translate(133.2510108947754,99.99993324333205)"><g><g class="tp-name"><g transform="scale(1)"><g transform="translate(0, 0)"><g class="name-imagesvg"><g><rect fill="#444" fill-opacity="0" stroke-width="2" x="0" y="0" width="33.80087340334097" height="50" class="image-rect"></rect> <svg filter="url(#colors9458261361)" x="0" y="0" width="33.80087340334097" height="50" filtersec="colorsf966985267" class="image-svg-svg primary" style="overflow: visible;"><svg xmlns="http://www.w3.org/2000/svg" viewBox="0 0 14.73 21.79"><path d="M7.66 0H0v6.19C0 2.24 4.14 0 7.66 0zm-.08 21.79h7.15v-6.44c0 3.06-1.59 6.44-7.15 6.44z" fill="#d7dacb"></path><path d="M7.49 4.48c-.94 0-2.12.65-2.12 1.65 0 1.25.84 1.5 4.62 3.2s4.74 3.58 4.74 6v-8.8H9.42c-.11-.71-.28-2.05-1.93-2.05z" fill="#ed7b0e"></path><path d="M7.52 17.31a1.79 1.79 0 0 0 1.76-2c0-1.39-.6-1.73-3.83-3.09C4 11.6 0 10.13 0 6.19v8.25h5.33c0 2.44 1.51 2.87 2.19 2.87z" fill="#d7dacb"></path><path d="M0 15.12v6.67h7.58C1.5 21.79 0 17.82 0 15.12z" fill="#ed7b0e"></path><path d="M13.34 2.38a6.42 6.42 0 0 1 1.39 4.15V0H7.66a7.53 7.53 0 0 1 5.68 2.38z" fill="#d7dacb"></path></svg></svg> <defs><filter id="colors9458261361"><feColorMatrix type="matrix" values="0 0 0 0 0.265625  0 0 0 0 0.265625  0 0 0 0 0.265625  0 0 0 1 0" class="icon-feColorMatrix "></feColorMatrix></filter> <filter id="colorsf966985267"><feColorMatrix type="matrix" values="0 0 0 0 0.99609375  0 0 0 0 0.99609375  0 0 0 0 0.99609375  0 0 0 1 0" class="icon-fecolormatrix"></feColorMatrix></filter> <filter id="colorsb5394422267"><feColorMatrix type="matrix" values="0 0 0 0 0  0 0 0 0 0  0 0 0 0 0  0 0 0 1 0" class="icon-fecolormatrix"></feColorMatrix></filter></defs></g></g></g><g transform="translate(33.80087340334097, 0)"><g class="name-imagesvg"><g><rect fill="#444" fill-opacity="0" stroke-width="2" x="0" y="0" width="39.697105346913354" height="50" class="image-rect"></rect> <svg filter="url(#colors7445249763)" x="0" y="0" width="39.697105346913354" height="50" filtersec="colorsf524171860" class="image-svg-svg primary" style="overflow: visible;"><svg xmlns="http://www.w3.org/2000/svg" viewBox="0 0 17.3 21.79"><path fill="none" d="M0 0h17.3v21.79H0z"></path><path fill="#d7dacb" d="M11.47 0H4.79v9.81L11.47 0z"></path><path fill="#ed7b0e" d="M4.79 21.79h6l-6-9.42v9.42z"></path><path fill="#d7dacb" d="M17.3 21.79V0l-7.17 10.53 7.17 11.26z"></path></svg></svg> <defs><filter id="colors7445249763"><feColorMatrix type="matrix" values="0 0 0 0 0.265625  0 0 0 0 0.265625  0 0 0 0 0.265625  0 0 0 1 0" class="icon-fecolormatrix"></feColorMatrix></filter> <filter id="colorsf524171860"><feColorMatrix type="matrix" values="0 0 0 0 0.99609375  0 0 0 0 0.99609375  0 0 0 0 0.99609375  0 0 0 1 0" class="icon-fecolormatrix"></feColorMatrix></filter> <filter id="colorsb7189457472"><feColorMatrix type="matrix" values="0 0 0 0 0  0 0 0 0 0  0 0 0 0 0  0 0 0 1 0" class="icon-fecolormatrix"></feColorMatrix></filter></defs></g></g></g></g></g></g> </g><defs v-gra="od"></defs></g></svg>